
<svg width="10899px" height="2407px" viewBox="0 0 10899 2407" version="1.1" xmlns="http://www.w3.org/2000/svg" xmlns:xlink="http://www.w3.org/1999/xlink">
    <!-- Generator: Sketch 51.3 (57544) - http://www.bohemiancoding.com/sketch -->
    <desc>Created with Sketch.</desc>
    <defs>
        <filter x="-0.1%" y="-0.1%" width="100.1%" height="100.4%" filterUnits="objectBoundingBox" id="filter-1">
            <feOffset dx="0" dy="2" in="SourceAlpha" result="shadowOffsetOuter1"></feOffset>
            <feGaussianBlur stdDeviation="2" in="shadowOffsetOuter1" result="shadowBlurOuter1"></feGaussianBlur>
            <feColorMatrix values="0 0 0 0 0   0 0 0 0 0   0 0 0 0 0  0 0 0 0.5 0" type="matrix" in="shadowBlurOuter1" result="shadowMatrixOuter1"></feColorMatrix>
            <feMerge>
                <feMergeNode in="shadowMatrixOuter1"></feMergeNode>
                <feMergeNode in="SourceGraphic"></feMergeNode>
            </feMerge>
        </filter>
    </defs>
    <g id="Page-1" stroke="none" stroke-width="1" fill="none" fill-rule="evenodd">
        <g id="222" filter="url(#filter-1)" transform="translate(-211.000000, -517.000000)">
            <rect id="Rectangle-path" x="0" y="0.8" width="11287" height="3407.2"></rect>
            <g id="Group" transform="translate(2919.857650, 1028.480000)" fill="#FFFFFF" font-family="Helvetica" font-size="1126.9" font-weight="normal">
                <text id="КАНОНФАРМА">
                    <tspan x="0" y="1093">КАНОНФАРМА</tspan>
                </text>
            </g>
            <g id="Group" transform="translate(2947.382000, 1958.277200)" fill="#FFFFFF" font-family="Helvetica" font-size="815.29" font-weight="normal">
                <text id="продакшн">
                    <tspan x="0" y="791">продакшн</tspan>
                </text>
            </g>
            <g id="Group" transform="translate(508.000000, 1297.000000)" fill="#FDFDFD">
                <path d="M0.96,884.72 C0.96,1159.06 186.68,1332.1 404.32,1418.43 C457.2,1439.41 585.44,1479.31 655.61,1479.31 C681.95,1366.08 754.57,1290.24 754.57,1029.56 C754.57,792.58 652.86,580.01 520.98,417.32 C479.87,366.6 433.59,302.15 381.57,267.26 C355.08,273.45 359.7,272.96 341.43,288.04 C252.49,361.43 263.61,345.37 186.01,437.32 C91.84,548.88 0.96,709.84 0.96,884.72 Z" id="Shape"></path>
                <path d="M450.08,206.28 C461.25,248.19 583.16,307.39 620.07,325.72 C963.21,496.09 1380.58,523.32 1768.29,481.99 C1837.05,474.67 1897.74,471.73 1957.31,457.84 C1957.31,396.25 1896.62,308.84 1861.68,263.93 C1736.4,102.87 1473.3,0.46 1249.37,0.46 C920,0.46 860.99,23.48 595.78,131.11 C541.95,152.96 476.6,199.19 450.08,206.28 Z" id="Shape"></path>
                <path d="M746.96,1486.93 C1117.79,1486.93 1415.15,1381.36 1651.08,1187.89 C1764.45,1094.92 1874.65,974.1 1930.2,834.7 C1979.26,711.64 1980.14,674.19 1980.14,549.31 C1932.95,550.36 1822.78,604.02 1779.01,622.32 C1559.65,714.08 1433.92,779.75 1237.14,910.6 C1058.08,1029.66 870.37,1215.52 764.53,1405.43 C751.87,1428.14 702.31,1486.93 746.96,1486.93 Z" id="Shape"></path>
                <path d="M785.02,732.26 C785.02,1047.37 1203.7,993.29 1203.7,770.38 L1203.7,724.64 C1203.7,575.94 984.67,460.3 855.23,589.12 C816.55,627.63 785.02,670.52 785.02,732.26 Z" id="Shape"></path>
            </g>
            <ellipse id="Oval" fill="#062D57" transform="translate(1432.580000, 1939.790000) rotate(-29.818236) translate(-1432.580000, -1939.790000) " cx="1432.58" cy="1939.79" rx="67.7331228" ry="43.3469867"></ellipse>
            <path d="M476.73,1510.95 C469.38,1505.42 458.47,1503.19 458.19,1491.04 C448.43,1502.97 435.68,1501.81 421.5,1502.61 C305.91,1509.15 224.27,1558.59 215.8,1667.48 C211.47,1723.14 228.69,1777.05 256.18,1827.92 C271.61,1817.88 270.08,1799.11 286.8,1781.14 C298.43,1817.56 327.19,1833.32 354.17,1851.27 C430.97,1902.38 582.36,1826.78 591.64,1755.19 C595.87,1734.53 587.9,1725.22 568.08,1734.33 C547.59,1743.75 526.46,1749.32 504.73,1754.41 C468.82,1762.8 436.34,1758.68 406.35,1736.05 C395.61,1727.92 383.52,1718.59 369.93,1718.73 C335.84,1719.12 338.71,1696.78 342.97,1675.78 C347.56,1653.21 359.82,1632.29 346.01,1608.16 C340.77,1599.03 350.63,1590.06 357.91,1583.08 C384.03,1558 410.92,1534.67 449.46,1531.05 C461.82,1529.89 474.38,1526.76 476.73,1510.95 Z" id="Shape" fill="#E6E6E6" fill-rule="nonzero"></path>
            <path d="M476.73,1510.95 C463.93,1527.47 444.56,1518.86 428.71,1523.6 C392.22,1534.54 366.55,1561.29 340.09,1586.46 C335.08,1591.25 328.89,1603.74 330.36,1605.11 C361.54,1634.42 326.73,1663.08 330.63,1691.29 C333.17,1709.9 326.22,1742.29 366.88,1725.91 C374.18,1722.95 389.38,1734.33 398.48,1741.98 C453.3,1788.04 509.7,1768.36 564.63,1744.82 C581.81,1737.47 588.63,1735.53 591.64,1755.18 C619.68,1722.07 601.64,1681.85 608.59,1645.48 C591.37,1619.44 584.5,1587.72 562.23,1564.25 C538.16,1538.93 513.01,1516.29 476.73,1510.95 Z" id="Shape" fill="#FEFEFE" fill-rule="nonzero"></path>
            <path d="M591.09,1546.74 C590.9,1531.32 596.88,1519.82 597.7,1518.12 C614.35,1483.25 593.6,1408.1 591.24,1398.64 C581.56,1359.82 595.96,1279.38 699.89,1097.38 C699.5,1095.06 699.23,1092.74 698.64,1090.43 C694.83,1035.3 678.18,983.65 658.31,932.46 C643.86,895.2 628.68,853.45 652.74,817.62 C688.42,764.45 723.08,709.01 779.15,672.8 C833.45,637.77 878.84,588.14 944.72,572.16 C1023.8,548.14 1105.09,536.33 1187.06,528.15 C1250.15,500.37 1289.88,544.34 1333.67,575.9 C1505.52,682.79 1651.84,816.01 1759.42,989.16 C1771.79,1015.16 1748.7,1015.12 1735.5,1019.24 C1691.82,1032.88 1647.94,1046.01 1603.13,1055.81 C1585.68,1055.98 1568.55,1058.2 1551.42,1061.27 C1489.23,1072.41 1426.35,1078.95 1363.8,1087.72 C1319.79,1093.9 1312.67,1086.88 1309.01,1044.54 C1307.11,1022.65 1297.78,1019.52 1279.75,1028.85 C1171.93,1084.68 1058.75,1096.18 939.93,1074.15 C902.69,1067.25 821.36,1132.4 804.73,1203.11 C801.21,1209.66 798.26,1216.42 795.53,1223.26 C786.77,1287.51 757.91,1345.05 730.12,1402.93 C735.24,1409.4 732.44,1416.03 730.44,1422.61 C716.53,1459.58 691.14,1489.24 668.4,1520.56 C656.75,1535 646.43,1550.81 633.03,1563.35 C625.21,1570.64 619.82,1588.18 603.8,1579.86 C591.1,1573.26 591.26,1558.75 591.09,1546.74 Z" id="Shape" fill="#E52D2F" fill-rule="nonzero"></path>
            <path d="M732.5,1462.22 C732.47,1462.22 732.45,1462.25 732.42,1462.26 C733.07,1462.65 733.72,1463.04 734.36,1463.42 C734.35,1463.41 732.5,1462.22 732.5,1462.22 Z M458.18,1491.03 C480.12,1416.95 497.41,1298.9 511.46,1201.12 C529.54,678.22 491.88,681.14 944.72,572.16 C637.3,779.59 633.61,772.01 702.52,1091.59 C492.49,1955.47 781.56,1407.28 832.18,978.28 C977.77,1107.96 1122.3,1092.79 1309.19,1006.68 C1303.57,1141.64 1475.67,1045.7 1594.88,1047.22 C1554.58,1038.72 1170.89,1237.58 1256.34,1113 C957.25,1290.24 891.65,992.76 734.38,1463.43 C617.88,1665 642.09,1678.44 458.18,1491.03 Z" id="Shape" fill="#BF2728" fill-rule="nonzero"></path>
            <path d="M681.24,1538.52 C699.26,1513.36 714.43,1486.62 728.21,1459.02 C743.02,1431.02 757.7,1402.95 767.59,1372.74 C783.01,1338.94 794.41,1303.61 805.14,1268.08 C830.69,1183.49 830.64,1183.5 917.82,1175.33 C926.43,1174.53 935.02,1172.84 943.65,1174.61 C948.91,1175.68 953.05,1178.11 955.03,1182.82 C955.12,1182.78 955.17,1182.7 955.26,1182.66 C1034.27,1173.23 1111.26,1154.42 1187.65,1132.84 C1213.79,1121.43 1239.92,1109.99 1275,1094.65 C1261.95,1119.84 1253.2,1136.7 1244.46,1153.57 C1261.19,1160.58 1275.1,1151.57 1289.56,1145.83 C1296.49,1141.25 1304.41,1137.24 1310.16,1132.29 C1401.32,1090.23 1498.23,1067.65 1595.98,1047.96 C1643.8,1035.46 1691.6,1022.81 1739.48,1010.58 C1750.56,1007.74 1761.61,1005.83 1760.8,990.69 C1789.13,1013.85 1819.03,996.65 1845.41,989.47 C1939.6,963.88 1973.99,1016.42 2011.13,1083.97 C2044.24,1144.19 2052,1212.41 2063.19,1279.15 C2064.89,1289.33 2070.94,1300.75 2059.08,1309.44 C2029.44,1277.18 2029.01,1276.74 2010.32,1271.71 C2022.49,1312.95 2014.22,1354.97 2002.38,1392.75 C1984.86,1448.62 1954.25,1496.72 1884.88,1505.13 C1822.47,1512.71 1761.29,1529.71 1697.95,1531.84 C1685.91,1532.24 1670.77,1542.57 1662.66,1533.25 C1650.9,1519.8 1672.82,1511.01 1674.06,1498.1 C1674.16,1497.03 1673.34,1495.87 1671.6,1490.9 C1540.15,1515.62 1408.06,1540.46 1275.98,1565.3 C1217.7,1590.13 1153.51,1593.34 1094.18,1614.62 C1086.15,1617.5 1068.46,1627.14 1067.73,1608.99 C1066.71,1583.22 1052.06,1592.37 1040.25,1594.58 C990.38,1603.83 940.86,1614.64 889.77,1615.76 C813.19,1617.46 736.44,1621.07 670.06,1571.97 C665.21,1557.98 674.31,1548.2 681.24,1538.52 Z" id="Shape" fill="#E6E6E6" fill-rule="nonzero"></path>
        </g>
    </g>
</svg>