<svg width="721px" height="429px" viewBox="0 0 721 429" version="1.1" xmlns="http://www.w3.org/2000/svg">
    <defs></defs>
    <g id="Web" stroke="none" stroke-width="1" fill-rule="evenodd">
        <g id="Main-ver2" transform="translate(-360.000000, -158.000000)">
            <g id="Page-1" transform="translate(360.000000, 158.000000)">
                <path d="M208.875001,257.134766 C232.688564,237.799968 252.576,218.420601 266.433437,200.737663 C270.263017,180.591291 278.550831,151.600722 290.328695,121.79311 C283.627075,122.170032 276.810384,121.976189 269.835528,121.054527 C233.860281,116.332241 259.898509,83.8200159 269.225778,74.2323439 C277.805141,78.3958486 292.781226,79.0279528 310.475474,77.503757 C317.178796,64.733908 324.480592,52.5998384 332.294884,41.8145643 C338.792532,32.8374505 353.779042,15.9230798 359.495448,15.1121821 C364.649741,14.3680643 389.620907,43.0833806 386.05768,46.9470694 C380.635255,52.7875499 375.218794,59.7063338 369.866283,67.414181 C396.406296,61.2412147 420.929897,53.6854195 434.001176,48.2740795 C439.022086,50.8212521 439.098305,54.5227613 434.677618,59.1973477 L427.684548,66.3523268 C417.271162,76.8844562 410.449584,83.8772558 366.566642,100.457727 C359.440984,103.145668 352.381174,105.889509 345.329441,108.478714 C311.693486,172.104068 285.052424,250.817102 282.971829,256.998177 C282.600695,258.113053 260.715676,269.051266 263.579407,223.150761 C256.113997,235.844066 243.845662,253.07676 222.48296,271.851931 C187.235806,307.868862 145.448019,320.077235 134.18236,284.081204 C121.968306,245.015018 157.819698,184.436195 190.450848,160.824764 C233.371528,129.800774 253.531386,147.735922 256.370534,164.335473 C264.821287,213.45679 171.61529,262.969246 171.61529,262.969246 C164.079162,276.363367 178.093884,280.475095 200.873761,262.969246 C203.023658,261.301866 205.786252,259.356784 208.875001,257.134766 Z M138.304712,99.3866695 C142.485242,94.3147822 146.386286,90.4493643 148.790635,89.9036562 C153.887763,88.7683995 179.811664,119.191371 176.610476,123.961357 C98.0575329,240.654297 86.2055181,416.838504 83.6712449,426.607435 C83.3187332,427.990731 53.7172783,443.111587 54.8891415,375.549504 C55.3777497,348.295547 61.0719417,257.170115 98.0553001,170.204008 C77.4494222,195.957852 57.870547,221.421467 26.950208,234.7481 C-6.77658639,249.277478 -0.593340747,207.807219 2.64595589,194.699297 C35.2485238,191.780065 111.553014,115.383968 133.008591,87.0120906 C138.696415,86.6018718 140.659047,89.7596026 139.125145,96.0941442 L138.304712,99.3866695 Z M614.462341,142.221755 C605.320813,154.110345 598.011763,165.036764 594.514994,172.903322 C580.633655,204.146731 577.708761,216.729955 580.424053,227.529203 C581.996065,233.806505 587.864908,231.411972 589.922814,228.101602 C598.435846,214.576441 609.069287,194.869751 621.124245,177.348682 C632.505393,227.129851 651.440549,275.991905 666.918037,297.604115 C672.767826,305.722631 684.972352,311.637414 690.28861,315.338923 C700.520976,322.512983 704.579624,321.959664 707.056733,322.999521 C707.4283,322.856422 707.790339,322.713322 708.142851,322.589302 C698.325571,299.618516 662.14425,209.177406 654.087663,138.723087 C675.433127,115.32632 694.605023,93.3574424 721,76.2061641 C709.348059,60.2839505 705.97538,59.8164919 689.616932,66.1701134 C682.913771,68.7791025 668.763772,81.3544966 653.277148,97.4222554 C653.430623,96.0142238 653.607452,94.6288726 653.808413,93.2674504 C654.570601,88.0395457 611.373627,66.3647288 608.143858,69.9231384 C608.143858,69.9231384 611.002061,108.741285 611.888104,119.998453 C612.473776,127.212516 613.345597,134.653142 614.462341,142.221755 Z M394.679255,166.303954 C388.595547,182.630894 381.855171,202.495059 376.010144,223.947898 C373.971293,231.455856 378.344344,228.164565 381.44073,233.46879 C383.73524,237.37965 389.041154,244.537223 393.191777,247.031965 C393.14654,247.120507 393.105493,247.197586 393.068852,247.262636 C393.111522,247.187261 393.154509,247.111578 393.197812,247.035589 C395.35237,248.328593 397.194914,248.363451 398.142162,246.032933 C400.820786,239.46633 403.348441,233.56624 405.752057,228.191756 C419.015047,210.094716 437.977984,187.852335 453.95612,173.348979 C444.295696,197.172994 439.483536,221.173976 447.918719,234.562071 C451.653437,240.524553 458.227304,246.830475 467.868975,245.18006 C487.367446,241.840822 512.379874,209.640982 532.202992,178.901674 C529.543244,209.28159 559.546822,235.891026 560.797727,221.669752 C564.570554,179.035617 589.170154,145.655254 600.3362,130.973237 C599.164337,129.90476 602.422688,128.082625 599.774087,123.751478 C592.333232,111.588013 577.775452,101.427943 575.879511,100.931864 C567.41923,98.6899706 564.37048,108.573382 564.37048,108.573382 C562.727467,112.213512 561.182164,115.508629 559.722209,118.520019 C542.13545,142.500463 510.232401,178.192468 493.66902,196.163683 C475.424158,216.016365 484.036876,193.044112 488.514728,185.755573 C498.87095,168.946142 507.216902,156.868537 517.096757,143.302697 C522.098612,136.405297 528.796334,135.4036 525.204526,126.436026 C522.041448,118.517849 508.531675,102.471616 500.700199,103.759512 C496.560948,104.4585 489.268006,112.008555 481.248488,123.291694 C464.008775,137.312781 444.104908,162.017018 428.932321,182.559699 C432.496337,175.991281 435.97414,169.416958 439.557523,161.833139 C445.254874,149.765074 452.43849,137.38219 439.89098,127.18396 C434.054911,122.446506 429.529291,117.769975 425.329497,116.055249 C425.677886,115.737357 425.979721,115.558692 426.227817,115.537562 C425.788623,115.57424 425.295297,115.675213 424.751229,115.83747 C420.71842,114.449558 416.947704,115.954125 412.549676,122.971528 C400.836715,131.567583 384.422729,146.647527 369.063201,163.100507 C373.550879,151.878653 376.077789,145.602784 376.077789,145.602784 C366.521864,133.23898 366.016914,135.356854 358.25213,134.517336 C345.80942,133.22944 310.062829,205.26577 306.051817,231.958612 C303.974856,245.953752 328.66973,265.052776 331.489823,257.869177 C340.032,236.150888 347.782954,216.563252 354.337614,200.057794 C369.16423,180.731625 385.409758,170.802501 394.679258,166.303954 Z M580.568869,76.5715451 C569.117003,46.4156929 597.584704,8.66602291 608.217218,1.0149652 C618.154237,-6.12093401 644.049556,26.7156503 637.25656,26.5343909 C642.963439,26.6870304 611.980519,37.801098 590.267704,85.7489983 C590.267704,85.7489983 582.207572,80.8359126 580.568869,76.5715451 Z M566.696105,283.758753 C547.479454,271.614369 365.840659,247.21112 206.543483,323.511818 C149.82721,350.662578 168.481747,411.451281 187.717453,400.175034 C358.923807,299.661887 521.812792,303.134437 582.397166,302.371239 C591.876872,302.285379 575.937627,289.616296 566.696105,283.758753 Z M225.740126,183.692077 C227.817087,190.198338 200.959507,221.384507 177.446024,235.102987 C177.446024,235.102987 214.964701,168.95282 225.740126,183.692077 Z" id="Combined-Shape"></path>
            </g>
        </g>
    </g>
</svg>