<svg width="10899" height="2407" xmlns="http://www.w3.org/2000/svg"><defs><filter x="-.1%" y="-.1%" width="100.1%" height="100.4%" filterUnits="objectBoundingBox" id="a"><feOffset dy="2" in="SourceAlpha" result="shadowOffsetOuter1"/><feGaussianBlur stdDeviation="2" in="shadowOffsetOuter1" result="shadowBlurOuter1"/><feColorMatrix values="0 0 0 0 0 0 0 0 0 0 0 0 0 0 0 0 0 0 0.5 0" in="shadowBlurOuter1" result="shadowMatrixOuter1"/><feMerge><feMergeNode in="shadowMatrixOuter1"/><feMergeNode in="SourceGraphic"/></feMerge></filter></defs><g filter="url(#a)" transform="translate(-211 -517)" fill="none" fill-rule="evenodd"><path d="M0 .8h11287V3408H0z"/><text transform="translate(2919.858 1028.48)" fill="#FFF" font-family="Helvetica" font-size="1126.9"><tspan x="0" y="1093">КАНОНФАРМА</tspan></text><text transform="translate(2947.382 1958.277)" fill="#FFF" font-family="Helvetica" font-size="815.29"><tspan x="0" y="791">продакшн</tspan></text><path d="M508.96 2181.72c0 274.34 185.72 447.38 403.36 533.71 52.88 20.98 181.12 60.88 251.29 60.88 26.34-113.23 98.96-189.07 98.96-449.75 0-236.98-101.71-449.55-233.59-612.24-41.11-50.72-87.39-115.17-139.41-150.06-26.49 6.19-21.87 5.7-40.14 20.78-88.94 73.39-77.82 57.33-155.42 149.28-94.17 111.56-185.05 272.52-185.05 447.4zm449.12-678.44c11.17 41.91 133.08 101.11 169.99 119.44 343.14 170.37 760.51 197.6 1148.22 156.27 68.76-7.32 129.45-10.26 189.02-24.15 0-61.59-60.69-149-95.63-193.91-125.28-161.06-388.38-263.47-612.31-263.47-329.37 0-388.38 23.02-653.59 130.65-53.83 21.85-119.18 68.08-145.7 75.17zm296.88 1280.65c370.83 0 668.19-105.57 904.12-299.04 113.37-92.97 223.57-213.79 279.12-353.19 49.06-123.06 49.94-160.51 49.94-285.39-47.19 1.05-157.36 54.71-201.13 73.01-219.36 91.76-345.09 157.43-541.87 288.28-179.06 119.06-366.77 304.92-472.61 494.83-12.66 22.71-62.22 81.5-17.57 81.5zm38.06-754.67c0 315.11 418.68 261.03 418.68 38.12v-45.74c0-148.7-219.03-264.34-348.47-135.52-38.68 38.51-70.21 81.4-70.21 143.14z" fill="#FDFDFD"/><ellipse fill="#062D57" transform="rotate(-29.818 1432.58 1939.79)" cx="1432.58" cy="1939.79" rx="67.733" ry="43.347"/><path d="M476.73 1510.95c-7.35-5.53-18.26-7.76-18.54-19.91-9.76 11.93-22.51 10.77-36.69 11.57-115.59 6.54-197.23 55.98-205.7 164.87-4.33 55.66 12.89 109.57 40.38 160.44 15.43-10.04 13.9-28.81 30.62-46.78 11.63 36.42 40.39 52.18 67.37 70.13 76.8 51.11 228.19-24.49 237.47-96.08 4.23-20.66-3.74-29.97-23.56-20.86-20.49 9.42-41.62 14.99-63.35 20.08-35.91 8.39-68.39 4.27-98.38-18.36-10.74-8.13-22.83-17.46-36.42-17.32-34.09.39-31.22-21.95-26.96-42.95 4.59-22.57 16.85-43.49 3.04-67.62-5.24-9.13 4.62-18.1 11.9-25.08 26.12-25.08 53.01-48.41 91.55-52.03 12.36-1.16 24.92-4.29 27.27-20.1z" fill="#E6E6E6" fill-rule="nonzero"/><path d="M476.73 1510.95c-12.8 16.52-32.17 7.91-48.02 12.65-36.49 10.94-62.16 37.69-88.62 62.86-5.01 4.79-11.2 17.28-9.73 18.65 31.18 29.31-3.63 57.97.27 86.18 2.54 18.61-4.41 51 36.25 34.62 7.3-2.96 22.5 8.42 31.6 16.07 54.82 46.06 111.22 26.38 166.15 2.84 17.18-7.35 24-9.29 27.01 10.36 28.04-33.11 10-73.33 16.95-109.7-17.22-26.04-24.09-57.76-46.36-81.23-24.07-25.32-49.22-47.96-85.5-53.3z" fill="#FEFEFE" fill-rule="nonzero"/><path d="M591.09 1546.74c-.19-15.42 5.79-26.92 6.61-28.62 16.65-34.87-4.1-110.02-6.46-119.48-9.68-38.82 4.72-119.26 108.65-301.26-.39-2.32-.66-4.64-1.25-6.95-3.81-55.13-20.46-106.78-40.33-157.97-14.45-37.26-29.63-79.01-5.57-114.84 35.68-53.17 70.34-108.61 126.41-144.82 54.3-35.03 99.69-84.66 165.57-100.64 79.08-24.02 160.37-35.83 242.34-44.01 63.09-27.78 102.82 16.19 146.61 47.75 171.85 106.89 318.17 240.11 425.75 413.26 12.37 26-10.72 25.96-23.92 30.08-43.68 13.64-87.56 26.77-132.37 36.57-17.45.17-34.58 2.39-51.71 5.46-62.19 11.14-125.07 17.68-187.62 26.45-44.01 6.18-51.13-.84-54.79-43.18-1.9-21.89-11.23-25.02-29.26-15.69-107.82 55.83-221 67.33-339.82 45.3-37.24-6.9-118.57 58.25-135.2 128.96-3.52 6.55-6.47 13.31-9.2 20.15-8.76 64.25-37.62 121.79-65.41 179.67 5.12 6.47 2.32 13.1.32 19.68-13.91 36.97-39.3 66.63-62.04 97.95-11.65 14.44-21.97 30.25-35.37 42.79-7.82 7.29-13.21 24.83-29.23 16.51-12.7-6.6-12.54-21.11-12.71-33.12z" fill="#E52D2F" fill-rule="nonzero"/><path d="M732.5 1462.22c-.03 0-.05.03-.08.04.65.39 1.3.78 1.94 1.16-.01-.01-1.86-1.2-1.86-1.2zm-274.32 28.81c21.94-74.08 39.23-192.13 53.28-289.91 18.08-522.9-19.58-519.98 433.26-628.96-307.42 207.43-311.11 199.85-242.2 519.43-210.03 863.88 79.04 315.69 129.66-113.31 145.59 129.68 290.12 114.51 477.01 28.4-5.62 134.96 166.48 39.02 285.69 40.54-40.3-8.5-423.99 190.36-338.54 65.78-299.09 177.24-364.69-120.24-521.96 350.43-116.5 201.57-92.29 215.01-276.2 27.6z" fill="#BF2728" fill-rule="nonzero"/><path d="M681.24 1538.52c18.02-25.16 33.19-51.9 46.97-79.5 14.81-28 29.49-56.07 39.38-86.28 15.42-33.8 26.82-69.13 37.55-104.66 25.55-84.59 25.5-84.58 112.68-92.75 8.61-.8 17.2-2.49 25.83-.72 5.26 1.07 9.4 3.5 11.38 8.21.09-.04.14-.12.23-.16 79.01-9.43 156-28.24 232.39-49.82 26.14-11.41 52.27-22.85 87.35-38.19-13.05 25.19-21.8 42.05-30.54 58.92 16.73 7.01 30.64-2 45.1-7.74 6.93-4.58 14.85-8.59 20.6-13.54 91.16-42.06 188.07-64.64 285.82-84.33 47.82-12.5 95.62-25.15 143.5-37.38 11.08-2.84 22.13-4.75 21.32-19.89 28.33 23.16 58.23 5.96 84.61-1.22 94.19-25.59 128.58 26.95 165.72 94.5 33.11 60.22 40.87 128.44 52.06 195.18 1.7 10.18 7.75 21.6-4.11 30.29-29.64-32.26-30.07-32.7-48.76-37.73 12.17 41.24 3.9 83.26-7.94 121.04-17.52 55.87-48.13 103.97-117.5 112.38-62.41 7.58-123.59 24.58-186.93 26.71-12.04.4-27.18 10.73-35.29 1.41-11.76-13.45 10.16-22.24 11.4-35.15.1-1.07-.72-2.23-2.46-7.2-131.45 24.72-263.54 49.56-395.62 74.4-58.28 24.83-122.47 28.04-181.8 49.32-8.03 2.88-25.72 12.52-26.45-5.63-1.02-25.77-15.67-16.62-27.48-14.41-49.87 9.25-99.39 20.06-150.48 21.18-76.58 1.7-153.33 5.31-219.71-43.79-4.85-13.99 4.25-23.77 11.18-33.45z" fill="#E6E6E6" fill-rule="nonzero"/></g></svg>